# xmcd
# Copyright (C) 1995-1998 Ti Kan
#
# Track frame offsets:
#       150
#       22192
#       43582
#       64308
#       82677
#       103269
#       117721
#       144228
#       160138
#       180848
#       196974
#       215982
#       238812
#       265231
#
# Disc length: 3876 seconds
#
# Revision: 0
# Processed by: cddbd v1.5.2PL0 Copyright (c) Steve Scherf et al.
# Submitted via: CD-Transfer v1.0
#
DISCID=cb0f220e
DTITLE=Thorogood, George - 
DYEAR=1900
DGENRE=
TTITLE0=Bad To The Bone
TTITLE1=Blue Highway
TTITLE2=Gear Jammer
TTITLE3=Willie And The Jive
TTITLE4=I Drink Alone
TTITLE5=Wanted Man
TTITLE6=Memphis Tennessee
TTITLE7=Tear Her Right
TTITLE8=You Talk Too Much
TTITLE9=Born To Be Wild
TTITLE10=Miss Luann
TTITLE11=Who Do You Love
TTITLE12=One Bourbon, One Scotch, One Bear
TTITLE13=Madison Blues
EXTD=
EXTT0=
EXTT1=
EXTT2=
EXTT3=
EXTT4=
EXTT5=
EXTT6=
EXTT7=
EXTT8=
EXTT9=
EXTT10=
EXTT11=
EXTT12=
EXTT13=
PLAYORDER=
